<svg width="22" height="20" viewBox="0 0 22 20" fill="none" xmlns="http://www.w3.org/2000/svg">
<path fill-rule="evenodd" clip-rule="evenodd" d="M14.13 13.0529C14.2511 12.9367 14.395 12.8445 14.5533 12.7816C14.7117 12.7187 14.8814 12.6863 15.0528 12.6863C15.2242 12.6863 15.394 12.7187 15.5523 12.7816C15.7106 12.8445 15.8545 12.9367 15.9756 13.0529L20.9972 17.8655C21.242 18.0999 21.3795 18.4179 21.3797 18.7495C21.3798 19.0811 21.2425 19.3991 20.9979 19.6337C20.7533 19.8682 20.4215 20.0001 20.0755 20.0002C19.7296 20.0003 19.3977 19.8687 19.1529 19.6343L14.1313 14.8217C14.01 14.7056 13.9138 14.5677 13.8482 14.416C13.7826 14.2642 13.7488 14.1016 13.7488 13.9373C13.7488 13.773 13.7826 13.6104 13.8482 13.4586C13.9138 13.3069 14.0087 13.169 14.13 13.0529Z" fill="#191919"/>
<path fill-rule="evenodd" clip-rule="evenodd" d="M8.98843 15.0004C9.9305 15.0004 10.8633 14.8226 11.7337 14.477C12.6041 14.1315 13.3949 13.6251 14.061 12.9867C14.7272 12.3483 15.2556 11.5904 15.6161 10.7562C15.9766 9.92209 16.1622 9.02807 16.1622 8.12521C16.1622 7.22235 15.9766 6.32833 15.6161 5.49419C15.2556 4.66006 14.7272 3.90214 14.061 3.26373C13.3949 2.62531 12.6041 2.11888 11.7337 1.77337C10.8633 1.42786 9.9305 1.25003 8.98843 1.25003C7.08584 1.25003 5.26117 1.97438 3.91583 3.26373C2.5705 4.55307 1.81469 6.3018 1.81469 8.12521C1.81469 9.94862 2.5705 11.6973 3.91583 12.9867C5.26117 14.276 7.08584 15.0004 8.98843 15.0004ZM17.4665 8.12521C17.4665 10.2801 16.5733 12.3468 14.9833 13.8706C13.3934 15.3944 11.237 16.2504 8.98843 16.2504C6.73991 16.2504 4.58349 15.3944 2.99354 13.8706C1.4036 12.3468 0.510376 10.2801 0.510376 8.12521C0.510376 5.97027 1.4036 3.90359 2.99354 2.37982C4.58349 0.856046 6.73991 0 8.98843 0C11.237 0 13.3934 0.856046 14.9833 2.37982C16.5733 3.90359 17.4665 5.97027 17.4665 8.12521Z" fill="#191919"/>
</svg>
